<svg width="64" height="64" viewBox="0 0 64 64" fill="none" xmlns="http://www.w3.org/2000/svg">
<rect width="64" height="64" rx="8" fill="#F7F3EF"/>
<path d="M19.624 47C19.528 47 19.48 46.904 19.48 46.712C19.48 46.52 19.528 46.424 19.624 46.424C20.584 46.424 21.304 46.344 21.784 46.184C22.296 46.024 22.664 45.704 22.888 45.224C23.144 44.744 23.352 44.04 23.512 43.112L27.448 20.888C27.704 19.512 27.656 18.616 27.304 18.2C26.952 17.784 26.088 17.576 24.712 17.576C24.648 17.576 24.616 17.48 24.616 17.288C24.616 17.096 24.648 17 24.712 17C25.384 17 26.136 17.032 26.968 17.096C27.8 17.128 28.68 17.144 29.608 17.144C30.6 17.144 31.528 17.128 32.392 17.096C33.288 17.032 34.072 17 34.744 17C34.808 17 34.84 17.096 34.84 17.288C34.84 17.48 34.808 17.576 34.744 17.576C33.784 17.576 33.048 17.672 32.536 17.864C32.024 18.024 31.656 18.344 31.432 18.824C31.208 19.304 31 20.008 30.808 20.936L26.92 42.92C26.696 44.232 26.728 45.096 27.016 45.512C27.336 45.896 28.104 46.088 29.32 46.088H33.064C35.08 46.088 36.76 45.512 38.104 44.36C39.448 43.176 40.6 41.528 41.56 39.416C41.56 39.352 41.656 39.336 41.848 39.368C42.04 39.4 42.12 39.464 42.088 39.56C41.832 40.456 41.544 41.544 41.224 42.824C40.936 44.072 40.696 45.224 40.504 46.28C40.408 46.76 40.152 47 39.736 47H19.624Z" fill="black"/>
</svg>
